HIERARCHY
ROOT Hips
{
	OFFSET -0.001795 -0.223333 0.028219
	CHANNELS 6 Xposition Yposition Zposition Zrotation Yrotation Xrotation 
	JOINT LeftUpLeg
	{
		OFFSET 0.069520 -0.091406 -0.006815
		CHANNELS 3 Zrotation Yrotation Xrotation
		JOINT LeftLeg
		{
			OFFSET 0.034277 -0.375199 -0.004496
			CHANNELS 3 Zrotation Yrotation Xrotation
			JOINT LeftFoot
			{
				OFFSET -0.013596 -0.397961 -0.043693
				CHANNELS 3 Zrotation Yrotation Xrotation
				JOINT LeftToe
				{
					OFFSET 0.026358 -0.055791 0.119288
					CHANNELS 3 Zrotation Yrotation Xrotation
					End Site
					{
						OFFSET 0.000000 0.000000 0.000000
					}
				}
			}
		}
	}
	JOINT RightUpLeg
	{
		OFFSET -0.067670 -0.090522 -0.004320
		CHANNELS 3 Zrotation Yrotation Xrotation
		JOINT RightLeg
		{
			OFFSET -0.038290 -0.382569 -0.008850
			CHANNELS 3 Zrotation Yrotation Xrotation
			JOINT RightFoot
			{
				OFFSET 0.015774 -0.398415 -0.042312
				CHANNELS 3 Zrotation Yrotation Xrotation
				JOINT RightToe
				{
					OFFSET -0.025372 -0.048144 0.123348
					CHANNELS 3 Zrotation Yrotation Xrotation
					End Site
					{
						OFFSET 0.000000 0.000000 0.000000
					}
				}
			}
		}
	}
	JOINT Spine
	{
		OFFSET -0.002533 0.108963 -0.026696
		CHANNELS 3 Zrotation Yrotation Xrotation
		JOINT Spine1
		{
			OFFSET 0.005487 0.135180 0.001092
			CHANNELS 3 Zrotation Yrotation Xrotation
			JOINT Spine2
			{
				OFFSET 0.001457 0.052922 0.025425
				CHANNELS 3 Zrotation Yrotation Xrotation
				JOINT Neck
				{
					OFFSET -0.002778 0.213870 -0.042857
					CHANNELS 3 Zrotation Yrotation Xrotation
					JOINT Head
					{
						OFFSET 0.005152 0.064970 0.051349
						CHANNELS 3 Zrotation Yrotation Xrotation
						End Site
						{
							OFFSET 0.000000 0.000000 0.000000
						}
					}
				}
				JOINT LeftShoulder
				{
					OFFSET 0.078845 0.121749 -0.034090
					CHANNELS 3 Zrotation Yrotation Xrotation
					JOINT LeftArm
					{
						OFFSET 0.090977 0.030469 -0.008868
						CHANNELS 3 Zrotation Yrotation Xrotation
						JOINT LeftForeArm
						{
							OFFSET 0.259612 -0.012772 -0.027456
							CHANNELS 3 Zrotation Yrotation Xrotation
							JOINT LeftHand
							{
								OFFSET 0.249234 0.008986 -0.001171
								CHANNELS 3 Zrotation Yrotation Xrotation
								End Site
								{
									OFFSET 0.000000 0.000000 0.000000
								}
							}
						}
					}
				}
				JOINT RightShoulder
				{
					OFFSET -0.081759 0.118833 -0.038615
					CHANNELS 3 Zrotation Yrotation Xrotation
					JOINT RightArm
					{
						OFFSET -0.096012 0.032551 -0.009143
						CHANNELS 3 Zrotation Yrotation Xrotation
						JOINT RightForeArm
						{
							OFFSET -0.253742 -0.013329 -0.021401
							CHANNELS 3 Zrotation Yrotation Xrotation
							JOINT RightHand
							{
								OFFSET -0.255298 0.007772 -0.005559
								CHANNELS 3 Zrotation Yrotation Xrotation
								End Site
								{
									OFFSET 0.000000 0.000000 0.000000
								}
							}
						}
					}
				}
			}
		}
	}
}
MOTION
Frames: 9
Frame Time: 0.050000
0.000000 0.956259 0.000000 -1.106094 3.802269 0.969197 6.027075 0.030071 5.212181 -3.385078 0.357394 -7.683571 2.190269 8.695346 12.449870 0.000000 0.000000 0.000000 -1.134969 -0.453915 4.971348 0.786834 -0.257699 -5.046404 -2.924385 -10.165166 12.469791 0.000000 0.000000 0.000000 -0.873491 -0.074963 2.516806 2.972107 -0.149598 -21.733906 -0.868943 0.639545 29.516533 1.241741 1.336428 -25.873729 0.000000 0.000000 0.000000 -26.027921 -0.114585 -2.588688 -52.951709 -4.543991 -6.642694 -8.395162 -26.911191 3.318342 0.000000 0.000000 0.000000 16.307045 3.536352 1.775814 59.749542 0.669798 -8.209952 10.906953 33.787562 5.212479 0.000000 0.000000 0.000000 
0.000289 0.954991 0.000874 -1.285917 3.416286 1.505280 6.187270 0.018604 5.213090 -3.116428 0.353936 -8.498823 2.790536 9.664268 12.746225 0.000000 0.000000 0.000000 -1.181441 -0.351604 3.987234 0.961141 -0.240722 -4.204157 -2.891362 -9.917416 11.233615 0.000000 0.000000 0.000000 -0.511285 -0.039947 1.272157 2.852511 -0.152614 -21.117425 -1.164285 0.734109 29.187437 1.152202 1.436475 -26.909327 0.000000 0.000000 0.000000 -25.823672 1.258497 -3.372793 -54.055257 -4.534882 -6.768410 -8.906484 -26.267523 3.379123 0.000000 0.000000 0.000000 15.851798 3.483218 1.688107 60.780229 0.250522 -8.469277 9.976561 34.627300 5.079843 0.000000 0.000000 0.000000 
0.000435 0.954992 0.001588 -0.878673 3.472761 1.721040 5.948743 0.017579 4.740359 -3.513122 0.365028 -7.421433 2.589787 9.261946 12.373264 0.000000 0.000000 0.000000 -1.627511 -0.314027 3.854423 0.757600 -0.248652 -4.875817 -2.800263 -9.949404 12.390949 0.000000 0.000000 0.000000 -0.783206 -0.033166 1.278096 2.794274 -0.083850 -22.234769 -1.392755 0.230384 30.209850 0.855939 1.540675 -27.330681 0.000000 0.000000 0.000000 -26.057413 1.125037 -3.101604 -54.508221 -5.241742 -6.654535 -7.209448 -24.941601 2.868233 0.000000 0.000000 0.000000 15.981662 4.114524 1.934064 61.253125 0.524335 -8.484533 8.781346 33.055686 4.414872 0.000000 0.000000 0.000000 
0.000507 0.955037 0.002434 -0.670974 3.429632 1.749878 5.765689 0.040439 5.018280 -3.257926 0.357033 -7.665643 2.557121 9.353754 12.970961 0.000000 0.000000 0.000000 -2.010892 -0.312985 4.082586 1.077913 -0.273927 -4.967278 -2.739154 -9.924441 12.843443 0.000000 0.000000 0.000000 -1.013494 -0.009976 0.726232 3.095984 -0.154431 -22.435069 -1.635974 -0.207319 30.537555 1.220201 1.217213 -26.888698 0.000000 0.000000 0.000000 -26.458250 1.783771 -3.396025 -54.826853 -4.964550 -6.861643 -6.905967 -24.873854 2.829755 0.000000 0.000000 0.000000 15.104807 4.693815 2.116680 61.564270 0.908592 -8.336654 8.789889 32.190947 4.231863 0.000000 0.000000 0.000000 
0.000511 0.955537 0.003105 -0.567878 3.538147 1.686125 5.454291 0.064934 5.116177 -3.269994 0.356316 -7.593218 2.254844 8.912791 13.036924 0.000000 0.000000 0.000000 -2.115861 -0.325410 4.277255 0.740051 -0.258452 -5.184242 -2.690986 -9.887647 13.201514 0.000000 0.000000 0.000000 -1.141931 -0.010578 0.818937 3.701139 -0.334201 -21.953616 -2.058662 -0.356156 29.793578 1.343514 1.070702 -25.932673 0.000000 0.000000 0.000000 -26.195592 1.751032 -3.338982 -55.140993 -4.673463 -6.955327 -7.518646 -25.063263 2.981850 0.000000 0.000000 0.000000 15.003362 4.226810 1.837448 61.989252 1.102944 -8.198465 8.680280 31.430750 4.069474 0.000000 0.000000 0.000000 
0.000497 0.955477 0.003515 -0.613845 3.455897 1.694719 5.490066 0.051487 4.785764 -3.157320 0.352557 -7.186725 2.516198 9.280330 12.913414 0.000000 0.000000 0.000000 -2.309613 -0.310224 4.237785 0.882784 -0.260560 -4.970514 -2.548693 -9.600820 13.024080 0.000000 0.000000 0.000000 -1.215595 -0.006122 0.719585 3.782906 -0.330754 -22.453888 -2.092889 -0.606521 30.049547 1.545134 0.896436 -25.931327 0.000000 0.000000 0.000000 -25.585860 1.840658 -3.192313 -55.694657 -4.803154 -7.020431 -8.150268 -25.014555 3.139832 0.000000 0.000000 0.000000 14.632262 4.223188 1.778164 62.073392 0.954450 -8.316843 9.346620 31.280711 4.209397 0.000000 0.000000 0.000000 
0.000425 0.955208 0.003526 -0.669738 3.504693 1.704284 5.625256 0.036245 4.654186 -3.169941 0.352949 -7.471138 2.199844 8.946056 13.507882 0.000000 0.000000 0.000000 -2.429852 -0.294203 4.124086 0.913899 -0.251413 -4.632077 -2.411806 -9.340207 13.030827 0.000000 0.000000 0.000000 -1.190807 -0.007679 0.757176 4.013141 -0.405504 -22.165132 -2.276834 -0.953820 29.550872 1.492521 0.876438 -25.923925 0.000000 0.000000 0.000000 -24.608052 2.259883 -3.237488 -55.590679 -4.522635 -7.111796 -10.202931 -26.315020 3.813095 0.000000 0.000000 0.000000 14.359816 4.250827 1.713898 61.688888 0.978403 -8.213850 10.560249 31.816093 4.596723 0.000000 0.000000 0.000000 
0.000333 0.954800 0.003291 -0.681809 3.175356 1.742984 5.477952 0.044063 4.448743 -3.052069 0.351297 -7.158255 2.574653 9.414819 13.203159 0.000000 0.000000 0.000000 -2.733447 -0.247644 3.803855 1.266360 -0.255657 -3.960665 -2.222065 -8.827470 12.061063 0.000000 0.000000 0.000000 -1.077728 -0.005293 0.617259 3.910862 -0.388931 -22.092035 -2.179239 -0.669056 29.719533 1.805207 0.685683 -25.660282 0.000000 0.000000 0.000000 -23.378592 1.547600 -2.663507 -54.803078 -5.619945 -6.568755 -12.215271 -28.453244 4.660535 0.000000 0.000000 0.000000 13.923000 4.460379 1.833239 60.941279 0.175952 -8.550493 14.313255 34.675680 6.265742 0.000000 0.000000 0.000000 
0.000225 0.954528 0.002862 -0.797450 3.079913 1.744014 5.653552 0.033466 4.430051 -3.063641 0.353397 -7.373368 2.238660 8.930438 13.383407 0.000000 0.000000 0.000000 -2.638120 -0.255351 3.846866 1.054559 -0.239058 -3.967346 -2.169638 -8.709133 11.928100 0.000000 0.000000 0.000000 -0.898730 -0.011714 0.715388 4.148524 -0.475980 -21.711485 -2.261548 -0.565961 29.374499 1.804310 0.668423 -25.255150 0.000000 0.000000 0.000000 -22.038773 1.551554 -2.528920 -53.874753 -7.167368 -5.779568 -15.693846 -32.553077 6.443789 0.000000 0.000000 0.000000 13.081692 4.471877 1.829117 59.839807 -0.711553 -8.805492 19.422111 37.956126 8.750222 0.000000 0.000000 0.000000 
